<?xml version="1.0" encoding="utf-8"?>
<!-- Generator: Adobe Illustrator 27.0.0, SVG Export Plug-In . SVG Version: 6.00 Build 0)  -->
<svg version="1.1" id="Layer_1" xmlns="http://www.w3.org/2000/svg" xmlns:xlink="http://www.w3.org/1999/xlink" x="0px" y="0px"
	 viewBox="0 0 1080 198.13" style="enable-background:new 0 0 1080 198.13;" xml:space="preserve">
<style type="text/css">
	.st0{fill:#2C3C55;}
	.st1{fill:#4C8BF5;}
	.st2{fill:none;}
	.st3{fill:#2E3956;}
</style>
<path class="st0" d="M24.26,51.87v87.84h23.99V51.87H24.26z M24.26,18.52v21.79h23.99V18.52H24.26z"/>
<path class="st0" d="M303.56,121.34V82.53c0-21.8-12.66-32.69-37.95-32.69c-23.48,0-35.98,9.42-37.44,28.25l21.95,0.36
	c0.56-4.08,2.09-7.04,4.59-8.86c2.5-1.81,6.18-2.73,11.08-2.73c9.85,0,14.8,3.19,14.8,9.54v6.46l-30.65,6.13
	c-17.81,3.52-26.72,12.38-26.72,26.57c0,8.06,2.78,14.52,8.35,19.4c5.56,4.87,12.94,7.32,22.13,7.32c11.79,0,20.83-3.8,27.08-11.41
	c0,0.23,0.61,3.19,1.86,8.86h24.35C304.71,135.74,303.56,129.61,303.56,121.34z M280.59,104.65c0,6.12-1.84,10.97-5.54,14.55
	c-3.68,3.57-8.55,5.36-14.55,5.36c-4.31,0-7.68-0.94-10.13-2.88c-2.45-1.94-3.65-4.49-3.65-7.66c0-5.9,3.8-9.6,11.38-11.08
	l22.48-4.75V104.65z"/>
<path class="st0" d="M377.45,51.87l-0.84,10.9c-5.79-8.73-14.37-13.09-25.7-13.09c-11.13,0-20.16,3.96-27.08,11.89
	c-7.04,8.06-10.57,18.91-10.57,32.51c0,13.53,3.52,24.47,10.57,32.87c6.92,8.5,15.95,12.76,27.08,12.76
	c9.98,0,17.92-3.57,23.81-10.72v12.07c0,5.9-1.4,10.31-4.24,13.19c-2.86,2.91-7.55,4.34-14.14,4.34c-10.44,0-16.33-3.9-17.71-11.74
	H316.5c0.92,9.54,4.8,16.84,11.66,21.97c6.87,5.1,16.44,7.66,28.69,7.66c13.27,0,23.58-3.09,30.91-9.29
	c7.3-6.18,10.97-15.01,10.97-26.47V51.87H377.45z M370.38,112.31c-3.68,4.64-8.42,6.99-14.22,6.99c-5.9,0-10.67-2.27-14.29-6.81
	c-3.62-4.54-5.44-10.67-5.44-18.4c0-7.71,1.81-13.83,5.44-18.38c3.62-4.54,8.4-6.81,14.29-6.81c5.79,0,10.54,2.32,14.22,6.99
	c3.7,4.64,5.54,10.72,5.54,18.2C375.92,101.59,374.08,107.66,370.38,112.31z"/>
<path class="st0" d="M496.78,98.86c0-14.98-4.21-26.95-12.61-35.91c-8.4-8.86-19.24-13.27-32.51-13.27
	c-13.17,0-23.66,4.31-31.49,12.91c-7.83,8.63-11.74,19.6-11.74,32.87c0,13.83,4.08,25.19,12.25,34.05
	c8.17,8.86,19.35,13.27,33.53,13.27c10.11,0,18.6-2.42,25.55-7.22c6.92-4.82,11.84-11.89,14.8-21.21l-23.84-1.71
	c-2.83,7.61-8.5,11.41-17.02,11.41c-6.02,0-10.85-1.86-14.47-5.61c-3.62-3.73-5.67-8.91-6.13-15.49h63.68V98.86z M432.93,86.61
	c0.59-5.9,2.63-10.67,6.13-14.29c3.52-3.42,8.01-5.1,13.45-5.1c5.46,0,9.88,1.68,13.3,5.1c3.39,3.39,5.44,8.17,6.13,14.29H432.93z"
	/>
<path class="st0" d="M549.2,48.81c-9.42,0-16.05,4.95-19.91,14.83l0.33-11.77h-23.5v87.84h24.02V97c0-16.92,7.25-25.37,21.79-25.37
	c0.33,0,1.97,0.13,4.93,0.33V50.01C554.59,49.22,552.04,48.81,549.2,48.81z"/>
<path class="st0" d="M622.4,51.87l-18.73,62.14l-2.73-12.76l-16.15-49.38h-26.39l34.22,92.26l-0.87,2.4
	c-1.81,4.98-5.95,7.48-12.43,7.48h-11.56v20.44h20.09c6.69,0,11.94-1.38,15.75-4.08c3.8-2.73,6.89-7.73,9.26-14.98l35.07-103.51
	H622.4z"/>
<path class="st1" d="M723.69,97.33c-4.21-4.08-10.67-7.02-19.42-8.86l-18.89-3.9c-6.58-1.48-9.88-4.42-9.88-8.86
	c0-2.83,1.2-5.1,3.57-6.81c2.4-1.68,5.56-2.55,9.54-2.55c4.54,0,8.29,1.1,11.31,3.24c3.01,2.17,4.8,5.16,5.36,9.01l21.62-0.84
	c-1.12-8.63-5.1-15.47-11.89-20.52c-6.81-5.03-15.49-7.55-26.06-7.55c-10.9,0-19.57,2.6-26.03,7.81
	c-6.48,5.23-9.72,12.28-9.72,21.11c0,13.76,8.52,22.31,25.55,25.73l17.35,3.39c7.73,1.58,11.59,4.54,11.59,8.86
	c0,3.06-1.43,5.44-4.26,7.15c-2.83,1.71-6.69,2.55-11.59,2.55c-10.87,0-17.12-4.54-18.71-13.63l-21.97,0.87
	c1.25,9.42,5.23,16.67,11.92,21.8c6.58,5.1,15.9,7.66,27.92,7.66c12.02,0,21.51-2.63,28.43-7.83c7.04-5.1,10.57-12.25,10.57-21.46
	C730,106.87,727.88,101.41,723.69,97.33z"/>
<path class="st1" d="M777.97,123.89c-6.12,0-10.87-2.42-14.29-7.25c-3.39-4.82-5.1-11.66-5.1-20.52c0-8.83,1.71-15.67,5.1-20.49
	c3.42-4.82,8.17-7.25,14.29-7.25c8.63,0,14.24,4.72,16.87,14.14h23.48c-1.81-10.44-6.23-18.53-13.27-24.27
	c-7.04-5.72-16.18-8.58-27.41-8.58c-12.81,0-23.1,4.19-30.8,12.58c-7.61,8.29-11.41,19.57-11.41,33.87c0,14.32,3.8,25.6,11.41,33.89
	c7.71,8.4,17.99,12.58,30.8,12.58c11,0,20.09-2.91,27.23-8.75c7.15-5.84,11.64-13.99,13.45-24.42h-23.48
	C792.11,119.07,786.5,123.89,777.97,123.89z"/>
<path class="st1" d="M899.86,62.77c-8.4-8.73-19.17-13.09-32.34-13.09c-13.17,0-23.96,4.36-32.36,13.09
	c-8.4,8.98-12.58,20.09-12.58,33.36c0,13.4,4.19,24.47,12.58,33.2c8.29,8.86,19.09,13.27,32.36,13.27s24.04-4.42,32.34-13.27
	c8.4-8.73,12.61-19.8,12.61-33.2C912.47,82.86,908.26,71.76,899.86,62.77z M883.53,116.39c-3.98,5-9.32,7.5-16,7.5
	c-6.58,0-11.87-2.5-15.85-7.5c-3.96-4.98-5.95-11.74-5.95-20.26c0-8.5,1.99-15.24,5.95-20.24c3.98-5,9.26-7.5,15.85-7.5
	c6.69,0,12.02,2.5,16,7.5c3.85,4.87,5.79,11.64,5.79,20.24C889.32,104.75,887.38,111.52,883.53,116.39z"/>
<path class="st1" d="M975.79,51.87v46.98c0,6.48-1.61,11.66-4.77,15.57c-3.19,3.93-7.32,5.9-12.43,5.9c-4.08,0-7.22-1.3-9.44-3.93
	c-2.22-2.6-3.32-6.3-3.32-11.05V51.87h-24.02v58.9c0,9.65,2.53,17.25,7.58,22.82c5.05,5.56,12.12,8.35,21.21,8.35
	c11.23,0,19.68-4.72,25.34-14.14l0.36,11.92h23.48V51.87H975.79z"/>
<path class="st1" d="M1058.68,69.59V51.87l-16.33,0.51V24.82h-24.02v27.41l-11.92-0.36v17.71l11.92-0.51v45.96
	c0,8.86,1.91,15.18,5.72,18.99c3.8,3.8,10.11,5.69,18.96,5.69h15.67v-19.24h-7.99c-2.96,0-5.1-0.64-6.41-1.94s-1.94-3.45-1.94-6.41
	V69.08L1058.68,69.59z"/>
<path class="st3" d="M396.32,157.74v0.73c0-0.24,0-0.49-0.02-0.73H396.32z"/>
<path class="st1" d="M138.29,69.08c-9.03,11.08-11.61,31.52-12.66,42.7v1.79c-1.38-24.27-8.4-46.65-32.13-60.46
	c-0.84-0.51-0.79-0.79,0.18-0.82c13.5-0.38,25.47-1.79,33.25,4.52C131.47,60.48,135.23,64.58,138.29,69.08z"/>
<path class="st1" d="M151.18,136.55v0.48c0-0.15-0.03-0.33-0.03-0.48H151.18z"/>
<path class="st0" d="M151.15,137.52v1.68c0,0.28-0.05,0.48-0.18,0.66c0.05-0.15,0.1-0.36,0.1-0.56
	C151.1,138.72,151.13,138.14,151.15,137.52z"/>
<path class="st0" d="M164.35,67.37c-5.34-5.31-10.98-6.97-16.92-4.95c-3.63,1.22-6.64,3.57-9.14,6.66
	c-9.04,11.08-11.61,31.52-12.66,42.7v28.81h25.55v-3.5c0-0.02,0-0.02,0-0.05c0-0.15-0.03-0.33-0.03-0.48h0.03v0.48
	c0.35-6.91,0.51-14.09,0.2-21.21c0.56-16.18,3.01-31.18,13.14-46.67C164.93,68.52,164.88,67.91,164.35,67.37z M151.15,139.21
	c0,0.28-0.05,0.49-0.18,0.66c0.05-0.15,0.11-0.35,0.11-0.56c0.02-0.58,0.05-1.17,0.07-1.78V139.21z"/>
<path class="st0" d="M100.85,69.15c-14.29,21.82-13.3,42.75-13.4,67.22l0.05,4.03h-1.28l-24.3-0.13v-28.51
	c1.35-14.29,5.23-43.74,21.82-49.36c5.95-2.02,11.59-0.36,16.89,4.95C101.18,67.9,101.26,68.51,100.85,69.15z"/>
<polygon class="st0" points="86.23,140.41 61.93,140.41 61.93,140.28 "/>
<path class="st0" d="M151.15,137.52v1.68c0,0.28-0.05,0.48-0.18,0.66c0.05-0.15,0.1-0.36,0.1-0.56
	C151.1,138.72,151.13,138.14,151.15,137.52z"/>
<path class="st0" d="M151.18,136.55v0.48c0-0.15-0.03-0.33-0.03-0.48H151.18z"/>
<path class="st1" d="M214.85,137.68v2.91h-25.54v-4.03c1.37-32.54-1.03-65.36-32.14-83.46c-0.84-0.51-0.79-0.79,0.21-0.81
	c13.47-0.39,25.44-1.79,33.23,4.51C214.83,76.33,216.26,108.92,214.85,137.68z"/>
</svg>
